<svg xmlns="http://www.w3.org/2000/svg" viewBox="0 0 64 64">
  <rect width="64" height="64" rx="14" fill="#0b1020"/>
  <path d="M22 42c-5.2 0-9.5-4.3-9.5-9.5 0-3.8 2.3-7.2 5.7-8.7.9-5.3 5.5-9.3 11-9.3 3.1 0 6 1.3 8.1 3.5 1.3-.6 2.8-.9 4.3-.9 5.4 0 9.9 4.4 9.9 9.9 0 1.1-.2 2.2-.5 3.2 2.2 1.8 3.5 4.5 3.5 7.4 0 5.2-4.3 9.5-9.5 9.5H22Z" fill="none" stroke="#e8f7ff" stroke-width="4" stroke-linejoin="round"/>
  <path d="M22 34h8l5-8 5 16 4-8h8" fill="none" stroke="#5eead4" stroke-width="4" stroke-linecap="round" stroke-linejoin="round"/>
  <path d="M24 24v-7m16 8v-9m5 25v8m-20-6v8" fill="none" stroke="#a78bfa" stroke-width="3.5" stroke-linecap="round"/>
  <circle cx="24" cy="17" r="4" fill="#a78bfa"/>
  <circle cx="40" cy="16" r="4" fill="#a78bfa"/>
  <circle cx="45" cy="49" r="4" fill="#a78bfa"/>
  <circle cx="25" cy="51" r="4" fill="#a78bfa"/>
</svg>
